<?xml version="1.0" encoding="UTF-8"?>
<!DOCTYPE svg  PUBLIC '-//W3C//DTD SVG 1.1//EN'  'http://www.w3.org/Graphics/SVG/1.1/DTD/svg11.dtd'>
<svg width="64px" height="64px" fill="none" viewBox="0 0 24 24" xmlns="http://www.w3.org/2000/svg">
<path d="m19.5 12c0 4.1421-3.3579 7.5-7.5 7.5-4.1421 0-7.5-3.3579-7.5-7.5 0-4.1421 3.3579-7.5 7.5-7.5 4.1421 0 7.5 3.3579 7.5 7.5zm1.5 0c0 4.9706-4.0294 9-9 9-4.9706 0-9-4.0294-9-9 0-4.9706 4.0294-9 9-9 4.9706 0 9 4.0294 9 9zm-9.75 1.5v-5.25h1.5v5.25h-1.5zm0 2.25v-1.5h1.5v1.5h-1.5z" clip-rule="evenodd" fill="#000" fill-rule="evenodd"/>
</svg>
